<?xml version="1.0" encoding="UTF-8"?>
<!DOCTYPE svg PUBLIC "-//W3C//DTD SVG 1.1//EN" "http://www.w3.org/Graphics/SVG/1.1/DTD/svg11.dtd">
<!-- Creator: CorelDRAW X7 -->
<svg xmlns="http://www.w3.org/2000/svg" xml:space="preserve" width="512px" height="580px" version="1.1" style="shape-rendering:geometricPrecision; text-rendering:geometricPrecision; image-rendering:optimizeQuality; fill-rule:evenodd; clip-rule:evenodd"
viewBox="0 0 512 580"
 xmlns:xlink="http://www.w3.org/1999/xlink">
 <defs>
  <style type="text/css">
   <![CDATA[
    .fil3 {fill:#0471AB}
    .fil2 {fill:#0471AC}
    .fil8 {fill:#0588C2}
    .fil0 {fill:#068DC7}
    .fil7 {fill:#129ED6}
    .fil5 {fill:#146A95}
    .fil1 {fill:#20AFE4}
    .fil4 {fill:#32A9D2}
    .fil6 {fill:#48AFD0}
   ]]>
  </style>
 </defs>
 <g id="Layer_x0020_1">
  <g id="_2253265124272">
   <path class="fil0" d="M128 361c-2,1 -1,1 -1,4 7,0 45,10 50,12l58 27c2,1 3,1 6,2 4,2 7,3 11,5l16 7c2,1 3,1 6,2l47 22c2,1 3,2 5,3l16 8c14,6 9,6 31,1 9,-2 18,-3 26,-5 18,-4 35,-7 52,-10 16,-3 37,-7 52,-10l0 -2 -6 -1c-1,0 -1,0 -1,-1l-1 0c-1,0 -1,0 -1,-1l-14 -7 -1 -1c-3,-1 -8,-4 -11,-6 -4,-2 -7,-4 -11,-6 -6,-3 -15,-9 -22,-11 -9,0 -75,15 -81,13l-15 -7c-9,-4 -41,-19 -51,-24 -2,-1 -2,-1 -4,-2 -1,-1 -2,-1 -4,-2 -3,-1 -5,-2 -7,-4 -2,-1 -5,-2 -7,-3l-77 -36c-3,-1 -1,0 -3,-2 -11,7 -33,19 -46,26 -5,3 -11,6 -15,8l1 -2z"/>
   <path class="fil0" d="M10 428c1,1 1,-1 1,1l11 -6 1 -1 16 -9 1 -1c5,-2 13,-7 18,-10 3,-2 6,-3 9,-5 4,-2 5,-4 8,-6l27 -72c2,-5 14,-11 19,-14l79 -53c4,-3 51,-34 53,-36 0,-2 0,-2 4,-4l0 -69 -2 0c-6,5 -14,16 -19,22l-7 9c-7,7 -6,6 -14,11 -4,2 -6,4 -10,7l-98 66c-7,5 -13,9 -20,13l-20 13c-5,4 -12,27 -15,34 -1,4 -3,8 -5,12 -1,4 -3,8 -5,12 -6,15 -19,46 -23,59l-9 24z"/>
   <path class="fil0" d="M256 77c5,0 8,7 11,11l26 34c20,23 13,21 17,44 2,13 4,40 5,54 1,12 2,24 3,36 2,19 3,38 5,56 1,6 0,12 1,18l53 30c3,1 6,2 7,4l1 0c-1,-6 -6,-17 -8,-22 -6,-15 -7,-13 -9,-30l-9 -91c0,-3 -1,-3 -1,-7 0,-3 -1,-4 -1,-7l-5 -52c0,-1 0,-3 0,-4 -1,-6 -2,-23 -3,-27l-67 -88c-1,-2 -2,-3 -3,-4 -1,-2 -2,-3 -4,-4l-20 -26 0 0 -1 0c0,0 1,0 0,1 2,2 1,66 1,75z"/>
   <path class="fil1" d="M376 295l30 21c8,6 6,9 11,20 2,5 3,10 5,15l11 29c2,6 5,10 5,16 7,2 16,7 22,11 4,2 7,4 11,6 3,2 8,5 11,6l1 1 14 7 1 1 1 0 1 1 6 1c-2,-3 -3,-8 -5,-12 -2,-4 -3,-8 -5,-13 -1,-4 -3,-8 -5,-12l-40 -102c-2,-3 -4,-4 -7,-6 -8,-5 -37,-27 -42,-27 -8,-2 -19,-14 -29,-17 -1,5 2,36 3,44l1 13z"/>
   <path class="fil1" d="M74 393c-3,2 -4,3 -8,6 -3,2 -6,3 -9,5 -5,3 -13,8 -18,10l-1 1 -16 9 -1 1 -11 6 -1 -1c-1,0 -1,0 -1,0l0 1 0 0 110 21c9,2 18,3 28,5 16,3 14,3 25,-3l22 -11c2,-1 4,-2 6,-2l17 -8 0 -2c4,-2 23,-9 26,-13 -2,-2 -29,-14 -35,-17l0 -2 -14 -7c-3,0 -12,5 -15,6l-15 7c-7,3 -9,4 -18,2 -23,-4 -46,-8 -68,-13 -3,-1 -2,1 -3,-2z"/>
   <path class="fil1" d="M165 120c0,4 -1,2 -2,4 -1,2 -1,4 -1,6 -2,24 -7,66 -8,85 4,-2 10,-6 14,-9l26 -18c8,-5 8,-3 8,-15 0,-7 1,-14 2,-20 2,-18 2,-13 15,-30 2,-2 3,-4 5,-6 4,-5 3,-5 6,-5l23 -29c1,-2 2,-2 4,-4l0 -2c0,-9 1,-73 -1,-75 -1,1 -2,2 -3,3l-66 85c-2,3 -4,5 -6,7l-17 23z"/>
   <path class="fil2" d="M256 79l48 61c2,3 3,21 4,26l4 36c0,1 0,3 0,5l3 36c0,2 1,2 1,5 0,7 2,22 3,32 0,2 1,8 1,14 0,6 1,10 1,13 0,2 0,3 0,5l2 18c-3,0 -8,1 -11,1 -4,0 -8,0 -12,1l-57 5c-4,0 -8,1 -11,1 2,3 28,14 34,17l17 8c6,3 12,5 17,8 22,11 12,6 38,1l44 -7 2 -1c-2,-2 -5,-3 -7,-4l-53 -30c-1,-6 0,-12 -1,-18 -2,-18 -2,-37 -5,-56 -1,-12 -2,-24 -3,-36 -1,-15 -3,-41 -5,-54 -3,-23 3,-21 -17,-44l-26 -34c-3,-4 -6,-11 -11,-11l0 2z"/>
   <path class="fil2" d="M254 145l2 0 0 69c-4,2 -4,2 -4,4 2,-1 3,-2 5,-2l39 60c2,4 4,7 7,10 1,2 6,8 7,10 0,-6 -2,-20 -2,-23l-3 -35c-1,-4 0,-8 -1,-12 -2,-22 1,-25 -9,-36 -1,-2 -2,-2 -3,-4 -2,-2 -4,-5 -6,-7l-7 -9c-3,-4 -20,-25 -23,-26 -2,1 -1,0 -2,3z"/>
   <path class="fil3" d="M143 320c-3,4 -15,37 -16,40l-1 2c4,-3 11,-6 15,-8 13,-7 35,-19 46,-26 2,-3 3,-6 5,-9 1,-2 4,-7 4,-10 1,-6 11,-23 15,-31 5,-11 14,-23 15,-30 -4,1 -9,5 -12,7 -19,12 -39,26 -58,39 -7,4 -6,2 -8,11 -1,4 -2,12 -5,13z"/>
   <path class="fil4" d="M165 120c-6,2 -4,14 -6,22l-5 51c-1,9 -2,16 -2,26 11,-6 41,-29 52,-34l1 -17c0,-2 0,-4 0,-6 0,-3 1,-2 1,-5 0,-3 0,-4 1,-6 2,-11 -1,-8 7,-18l16 -21c-3,0 -3,0 -6,5 -2,2 -3,4 -5,6 -13,17 -13,11 -15,30 -1,7 -1,14 -2,20 -1,11 -1,10 -8,15l-26 18c-4,2 -10,7 -14,9 1,-19 6,-61 8,-85 0,-2 0,-4 1,-6 1,-3 1,-1 2,-4z"/>
   <path class="fil5" d="M143 320c3,-1 4,-9 5,-13 2,-9 1,-7 8,-11 20,-13 39,-27 58,-39 3,-2 8,-6 12,-7 -1,7 -10,20 -15,30 -4,8 -14,25 -15,31 2,-2 3,-5 5,-7l22 -42c1,-2 1,-2 2,-4 2,-4 5,-8 6,-13 -6,1 -43,28 -50,33l-31 21c-3,2 -3,3 -4,7 -1,3 -1,5 -2,8 -1,3 -2,6 -2,8z"/>
   <path class="fil6" d="M376 295l-1 -13c-1,-8 -4,-39 -3,-44 10,3 21,15 29,17 -1,-3 -27,-19 -31,-21 0,4 0,5 1,7 0,1 0,3 0,4l4 42c0,4 0,5 2,7z"/>
   <path class="fil4" d="M216 433c2,-1 2,-1 4,-2 2,-1 2,-1 4,-2l23 -11c-2,-3 -6,-4 -9,-6 -3,-2 -7,-3 -10,-5l-20 -9 0 2c6,3 33,15 35,17 -3,4 -22,11 -26,13l0 2z"/>
   <path class="fil7" d="M10 429c0,-2 0,-1 -1,-1l0 1 1 1z"/>
   <path class="fil8" d="M385 365l-2 1c2,0 1,0 2,-1z"/>
   <path class="fil7" d="M496 426l-1 -1c0,1 0,1 1,1z"/>
   <path class="fil7" d="M497 427l-1 -1c0,1 0,1 1,1z"/>
   <polygon class="fil7" points="39,413 38,414 "/>
   <polygon class="fil7" points="481,418 480,417 "/>
   <polygon class="fil7" points="22,422 22,423 "/>
  </g>
 </g>
</svg>
